<svg width="581" height="498" viewBox="0 0 581 498" fill="none" xmlns="http://www.w3.org/2000/svg">
<path d="M580.917 242.977C580.954 244.312 580.978 245.649 580.991 246.989L579.991 246.998C579.997 247.665 580 248.332 580 249C580 249.668 579.997 250.336 579.991 251.003L580.991 251.012C580.978 252.351 580.954 253.689 580.917 255.023L579.917 254.995C579.88 256.324 579.831 257.649 579.77 258.973L580.769 259.019C580.708 260.352 580.634 261.682 580.548 263.01L579.55 262.945C579.464 264.276 579.366 265.603 579.255 266.928L580.252 267.011C580.141 268.342 580.017 269.67 579.882 270.996L578.887 270.894C578.753 272.214 578.606 273.532 578.447 274.846L579.44 274.966C579.279 276.295 579.106 277.621 578.921 278.944L577.931 278.806C577.746 280.123 577.55 281.436 577.342 282.747L578.33 282.904C578.121 284.22 577.9 285.533 577.667 286.843L576.682 286.668C576.449 287.979 576.203 289.287 575.946 290.592L576.927 290.785C576.669 292.096 576.399 293.403 576.117 294.706L575.139 294.495C574.858 295.792 574.566 297.086 574.261 298.377L575.235 298.606C574.928 299.907 574.609 301.204 574.279 302.497L573.31 302.25C572.981 303.538 572.641 304.822 572.288 306.103L573.252 306.368C572.898 307.654 572.533 308.937 572.156 310.215L571.197 309.932C570.821 311.207 570.433 312.478 570.034 313.745L570.988 314.046C570.587 315.319 570.175 316.589 569.751 317.854L568.803 317.536C568.381 318.796 567.947 320.052 567.503 321.303L568.445 321.638C567.998 322.895 567.54 324.149 567.071 325.398L566.135 325.046C565.668 326.29 565.189 327.529 564.7 328.764L565.629 329.133C565.138 330.374 564.635 331.61 564.121 332.842L563.198 332.457C562.687 333.683 562.164 334.904 561.631 336.121L562.547 336.522C562.012 337.744 561.466 338.962 560.909 340.174L560 339.757C559.445 340.964 558.88 342.167 558.304 343.365L559.205 343.799C558.627 345.001 558.039 346.199 557.439 347.392L556.546 346.943C555.95 348.129 555.343 349.311 554.726 350.488L555.612 350.952C554.992 352.134 554.362 353.311 553.722 354.483L552.844 354.003C552.207 355.169 551.56 356.33 550.903 357.486L551.772 357.981C551.113 359.139 550.444 360.293 549.764 361.441L548.904 360.932C548.227 362.075 547.541 363.214 546.845 364.347L547.697 364.871C546.998 366.008 546.289 367.14 545.57 368.267L544.727 367.729C544.014 368.848 543.291 369.961 542.558 371.069L543.392 371.62C542.656 372.733 541.911 373.84 541.156 374.942L540.331 374.377C539.579 375.474 538.817 376.565 538.046 377.652L538.862 378.23C538.091 379.316 537.311 380.396 536.522 381.471L535.716 380.879C534.93 381.949 534.135 383.014 533.33 384.074L534.126 384.678C533.318 385.742 532.501 386.8 531.675 387.852L530.889 387.235C530.07 388.278 529.242 389.315 528.405 390.347L529.181 390.977C528.342 392.012 527.493 393.041 526.636 394.065L525.869 393.423C525.015 394.443 524.152 395.456 523.28 396.464L524.037 397.119C523.166 398.126 522.286 399.128 521.397 400.124L520.651 399.458C519.767 400.448 518.875 401.433 517.975 402.411L518.711 403.088C517.807 404.071 516.894 405.047 515.974 406.017L515.248 405.329C514.334 406.292 513.412 407.249 512.481 408.2L513.196 408.9C512.265 409.852 511.325 410.797 510.378 411.737L509.674 411.027C508.73 411.963 507.778 412.893 506.818 413.817L507.512 414.537C506.55 415.463 505.581 416.382 504.604 417.294L503.921 416.564C502.952 417.469 501.976 418.368 500.991 419.26L501.663 420.001C500.675 420.897 499.68 421.787 498.676 422.67L498.016 421.92C497.017 422.799 496.01 423.672 494.996 424.539L495.646 425.299C494.635 426.164 493.617 427.021 492.591 427.873L491.953 427.103C490.931 427.952 489.902 428.794 488.865 429.629L489.493 430.408C488.453 431.246 487.406 432.078 486.351 432.904L485.735 432.117C484.691 432.934 483.64 433.745 482.582 434.549L483.187 435.345C482.126 436.151 481.059 436.951 479.985 437.744L479.391 436.939C478.321 437.73 477.243 438.513 476.159 439.29L476.742 440.103C475.659 440.879 474.569 441.649 473.473 442.412L472.901 441.591C471.813 442.349 470.717 443.1 469.616 443.844L470.175 444.673C469.07 445.42 467.958 446.16 466.839 446.893L466.291 446.057C465.178 446.786 464.06 447.509 462.934 448.225L463.471 449.069C462.349 449.783 461.221 450.49 460.086 451.19L459.561 450.339C458.43 451.037 457.294 451.728 456.151 452.413L456.665 453.27C455.518 453.957 454.365 454.637 453.206 455.309L452.704 454.445C451.558 455.11 450.406 455.768 449.249 456.42L449.739 457.292C448.578 457.945 447.412 458.591 446.239 459.231L445.76 458.353C444.592 458.99 443.418 459.62 442.238 460.244L442.705 461.128C441.527 461.75 440.343 462.365 439.154 462.974L438.699 462.083C437.518 462.688 436.331 463.285 435.14 463.875L435.583 464.771C434.388 465.363 433.187 465.948 431.98 466.525L431.549 465.623C430.348 466.198 429.142 466.766 427.931 467.327L428.351 468.234C427.145 468.793 425.933 469.344 424.717 469.888L424.308 468.975C423.096 469.518 421.878 470.053 420.655 470.581L421.052 471.499C419.825 472.029 418.594 472.552 417.357 473.067L416.972 472.144C415.748 472.654 414.519 473.157 413.285 473.653L413.658 474.581C412.422 475.077 411.182 475.566 409.938 476.048L409.577 475.116C408.336 475.596 407.09 476.069 405.84 476.535L406.19 477.472C404.939 477.938 403.684 478.396 402.424 478.847L402.087 477.906C400.839 478.353 399.587 478.792 398.331 479.225L398.656 480.17C397.395 480.604 396.131 481.03 394.861 481.449L394.548 480.5C393.283 480.917 392.013 481.327 390.739 481.73L391.041 482.684C389.773 483.085 388.501 483.478 387.224 483.864L386.935 482.907C385.664 483.292 384.39 483.669 383.112 484.038L383.389 484.999C382.107 485.369 380.821 485.733 379.531 486.088L379.265 485.124C377.982 485.478 376.696 485.824 375.406 486.163L375.66 487.13C374.374 487.467 373.084 487.797 371.791 488.12L371.549 487.149C370.26 487.471 368.966 487.785 367.67 488.091L367.9 489.065C366.599 489.372 365.295 489.672 363.987 489.964L363.769 488.988C362.474 489.277 361.177 489.559 359.876 489.833L360.082 490.812C358.78 491.086 357.474 491.353 356.165 491.612L355.971 490.631C354.665 490.89 353.357 491.141 352.045 491.384L352.227 492.367C350.914 492.611 349.598 492.847 348.278 493.075L348.108 492.09C346.802 492.315 345.494 492.534 344.183 492.744L344.341 493.732C343.026 493.943 341.707 494.147 340.386 494.343L340.239 493.353C338.921 493.549 337.601 493.737 336.277 493.917L336.412 494.908C335.092 495.087 333.77 495.259 332.444 495.424L332.321 494.431C331.006 494.594 329.687 494.75 328.366 494.898L328.477 495.892C327.151 496.04 325.823 496.18 324.492 496.313L324.393 495.318C323.066 495.451 321.736 495.576 320.404 495.693L320.492 496.689C319.169 496.805 317.843 496.914 316.515 497.015L316.439 496.018C315.116 496.119 313.79 496.212 312.462 496.297L312.526 497.295C311.194 497.381 309.859 497.458 308.522 497.529L308.47 496.53C307.14 496.6 305.808 496.662 304.474 496.716L304.514 497.715C303.188 497.769 301.859 497.816 300.527 497.854L300.498 496.855C299.171 496.893 297.841 496.924 296.509 496.948L296.526 497.947C295.19 497.971 293.852 497.986 292.512 497.994L292.506 496.994C291.838 496.998 291.169 497 290.5 497C289.831 497 289.162 496.998 288.493 496.994L288.487 497.994C287.147 497.986 285.809 497.971 284.473 497.947L284.491 496.948C283.159 496.924 281.829 496.893 280.501 496.855L280.472 497.854C279.141 497.816 277.812 497.769 276.485 497.715L276.526 496.716C275.191 496.662 273.859 496.6 272.53 496.53L272.477 497.529C271.14 497.458 269.806 497.381 268.473 497.295L268.538 496.297C267.209 496.212 265.884 496.119 264.56 496.018L264.485 497.015C263.156 496.914 261.831 496.805 260.508 496.689L260.596 495.693C259.263 495.576 257.934 495.451 256.607 495.318L256.507 496.313C255.176 496.18 253.848 496.04 252.523 495.891L252.634 494.898C251.313 494.75 249.994 494.594 248.678 494.431L248.555 495.424C247.23 495.259 245.907 495.087 244.588 494.908L244.723 493.917C243.399 493.737 242.078 493.549 240.761 493.353L240.614 494.343C239.292 494.147 237.974 493.943 236.658 493.732L236.817 492.744C235.506 492.534 234.197 492.315 232.892 492.09L232.722 493.075C231.402 492.847 230.085 492.611 228.772 492.367L228.955 491.384C227.643 491.141 226.334 490.89 225.029 490.631L224.835 491.612C223.526 491.353 222.22 491.086 220.918 490.812L221.124 489.833C219.823 489.559 218.525 489.277 217.231 488.988L217.013 489.964C215.705 489.672 214.401 489.372 213.1 489.064L213.33 488.091C212.033 487.785 210.74 487.471 209.451 487.149L209.209 488.12C207.915 487.797 206.626 487.467 205.34 487.13L205.594 486.162C204.304 485.824 203.017 485.478 201.735 485.124L201.469 486.088C200.179 485.733 198.893 485.369 197.61 484.999L197.888 484.038C196.61 483.668 195.335 483.292 194.065 482.907L193.775 483.864C192.499 483.478 191.227 483.085 189.959 482.684L190.26 481.73C188.987 481.327 187.717 480.917 186.452 480.5L186.138 481.449C184.869 481.03 183.604 480.604 182.344 480.17L182.669 479.225C181.412 478.792 180.16 478.353 178.912 477.906L178.575 478.847C177.316 478.396 176.061 477.937 174.81 477.472L175.159 476.534C173.909 476.069 172.664 475.596 171.423 475.116L171.062 476.048C169.817 475.566 168.577 475.077 167.342 474.581L167.715 473.653C166.481 473.157 165.252 472.654 164.027 472.144L163.643 473.067C162.406 472.552 161.175 472.029 159.948 471.499L160.344 470.581C159.122 470.053 157.904 469.518 156.691 468.975L156.283 469.888C155.067 469.344 153.855 468.793 152.649 468.234L153.069 467.327C151.858 466.766 150.652 466.198 149.451 465.623L149.019 466.525C147.813 465.947 146.612 465.363 145.416 464.771L145.86 463.874C144.668 463.284 143.482 462.687 142.301 462.083L141.846 462.974C140.656 462.365 139.473 461.75 138.295 461.128L138.762 460.243C137.582 459.62 136.408 458.99 135.239 458.353L134.761 459.23C133.588 458.591 132.422 457.945 131.261 457.291L131.751 456.42C130.593 455.768 129.441 455.11 128.295 454.444L127.793 455.309C126.635 454.637 125.482 453.957 124.335 453.27L124.849 452.412C123.706 451.728 122.569 451.037 121.439 450.339L120.913 451.19C119.779 450.49 118.651 449.782 117.529 449.069L118.065 448.225C116.94 447.509 115.821 446.786 114.709 446.057L114.161 446.893C113.042 446.16 111.93 445.42 110.824 444.673L111.384 443.844C110.282 443.1 109.187 442.349 108.098 441.591L107.527 442.412C106.431 441.649 105.341 440.879 104.258 440.103L104.84 439.29C103.756 438.513 102.679 437.73 101.609 436.939L101.015 437.744C99.9407 436.951 98.8734 436.151 97.813 435.345L98.4182 434.549C97.3602 433.745 96.3091 432.934 95.2651 432.116L94.6486 432.904C93.5942 432.078 92.5469 431.246 91.5069 430.408L92.1345 429.629C91.0982 428.794 90.069 427.952 89.0471 427.103L88.4084 427.873C87.3828 427.021 86.3645 426.163 85.3537 425.299L86.0035 424.539C84.9896 423.672 83.9831 422.799 82.9842 421.919L82.3234 422.67C81.3202 421.787 80.3246 420.897 79.3366 420.001L80.0084 419.26C79.0241 418.368 78.0475 417.469 77.0786 416.564L76.396 417.294C75.4189 416.381 74.4496 415.462 73.4883 414.537L74.1817 413.817C73.2219 412.893 72.27 411.963 71.3261 411.027L70.6219 411.737C69.6745 410.797 68.7351 409.851 67.8039 408.899L68.5187 408.2C67.5881 407.249 66.6658 406.292 65.7517 405.329L65.0263 406.017C64.1055 405.047 63.1931 404.07 62.2892 403.088L63.025 402.411C62.1245 401.432 61.2324 400.448 60.3489 399.458L59.6027 400.124C58.7142 399.128 57.8343 398.126 56.963 397.118L57.7195 396.464C56.8478 395.456 55.9849 394.442 55.1308 393.423L54.3643 394.065C53.5068 393.041 52.6582 392.012 51.8185 390.977L52.5951 390.347C51.7582 389.315 50.9302 388.277 50.1113 387.234L49.3247 387.852C48.4985 386.8 47.6815 385.742 46.8736 384.678L47.6699 384.073C46.8653 383.014 46.0699 381.949 45.2838 380.879L44.4778 381.471C43.6885 380.396 42.9085 379.316 42.1379 378.23L42.9534 377.651C42.1825 376.565 41.421 375.473 40.6691 374.376L39.8442 374.942C39.0891 373.84 38.3436 372.733 37.6077 371.62L38.4418 371.068C37.709 369.961 36.9859 368.847 36.2726 367.729L35.4295 368.267C34.7108 367.14 34.0021 366.008 33.3033 364.87L34.1553 364.347C33.4589 363.214 32.7725 362.075 32.0962 360.932L31.2354 361.441C30.5562 360.292 29.8871 359.139 29.2281 357.98L30.0973 357.486C29.4398 356.33 28.7925 355.169 28.1554 354.003L27.2778 354.482C26.6375 353.31 26.0075 352.134 25.3879 350.952L26.2735 350.487C25.6566 349.311 25.0501 348.129 24.4541 346.943L23.5605 347.391C22.9613 346.199 22.3726 345.001 21.7945 343.798L22.6958 343.365C22.1199 342.167 21.5545 340.964 21 339.757L20.0913 340.174C19.5342 338.961 18.988 337.744 18.4527 336.522L19.3686 336.121C18.8355 334.904 18.3132 333.682 17.8018 332.456L16.8789 332.841C16.3651 331.609 15.8623 330.373 15.3706 329.132L16.3003 328.764C15.8108 327.529 15.3323 326.289 14.865 325.046L13.9289 325.397C13.4597 324.148 13.0016 322.895 12.5548 321.637L13.4971 321.302C13.0526 320.051 12.6193 318.796 12.1973 317.536L11.2491 317.854C10.8252 316.588 10.4127 315.319 10.0117 314.045L10.9656 313.745C10.5666 312.478 10.1791 311.207 9.80315 309.932L8.84399 310.215C8.46692 308.936 8.10138 307.654 7.74748 306.367L8.71167 306.102C8.35939 304.822 8.01871 303.537 7.68971 302.249L6.72082 302.497C6.39049 301.203 6.0719 299.906 5.76513 298.606L6.73843 298.376C6.4341 297.086 6.14146 295.792 5.86063 294.494L4.88326 294.706C4.60111 293.402 4.33082 292.095 4.07247 290.785L5.05359 290.591C4.79646 289.287 4.55123 287.979 4.31798 286.668L3.33343 286.843C3.10042 285.533 2.87931 284.22 2.67021 282.903L3.65783 282.746C3.4497 281.436 3.25352 280.122 3.06939 278.805L2.07902 278.944C1.89403 277.621 1.72114 276.295 1.56045 274.965L2.55322 274.845C2.39435 273.531 2.24746 272.214 2.11264 270.894L1.11782 270.995C0.982506 269.67 0.859306 268.342 0.748311 267.011L1.74485 266.928C1.63437 265.603 1.53604 264.275 1.44995 262.945L0.452038 263.009C0.366136 261.682 0.292369 260.351 0.230828 259.018L1.22977 258.972C1.16869 257.649 1.11971 256.323 1.08292 254.995L0.0833069 255.023C0.0463511 253.688 0.0216444 252.351 0.00927949 251.011L1.00924 251.002C1.00308 250.335 1 249.668 1 249C1 248.332 1.00308 247.664 1.00924 246.997L0.00928428 246.988C0.0216524 245.649 0.0463622 244.311 0.0833211 242.977L1.08294 243.005C1.11973 241.676 1.16871 240.351 1.22979 239.027L0.230852 238.981C0.292395 237.648 0.366166 236.318 0.452071 234.99L1.44998 235.055C1.53608 233.724 1.63441 232.397 1.74489 231.072L0.748352 230.989C0.85935 229.658 0.982553 228.33 1.11787 227.004L2.11269 227.106C2.24751 225.786 2.3944 224.468 2.55328 223.154L1.56051 223.034C1.7212 221.705 1.89409 220.379 2.07909 219.056L3.06945 219.194C3.25359 217.877 3.44977 216.564 3.65791 215.253L2.67029 215.096C2.87939 213.78 3.1005 212.467 3.33351 211.157L4.31806 211.332C4.55131 210.021 4.79655 208.713 5.05367 207.408L4.07256 207.215C4.33091 205.904 4.60121 204.597 4.88335 203.294L5.86072 203.505C6.14156 202.208 6.4342 200.914 6.73853 199.623L5.76523 199.394C6.072 198.093 6.3906 196.796 6.72093 195.503L7.68982 195.75C8.01882 194.462 8.35951 193.178 8.71178 191.897L7.7476 191.632C8.1015 190.346 8.46704 189.063 8.84412 187.785L9.80328 188.068C10.1793 186.793 10.5668 185.522 10.9657 184.255L10.0119 183.954C10.4129 182.681 10.8254 181.411 11.2493 180.146L12.1975 180.464C12.6194 179.204 13.0527 177.948 13.4973 176.697L12.555 176.362C13.0017 175.105 13.4598 173.851 13.9291 172.602L14.8652 172.954C15.3325 171.71 15.8109 170.471 16.3004 169.236L15.3708 168.867C15.8625 167.626 16.3652 166.39 16.879 165.158L17.802 165.543C18.3133 164.317 18.8356 163.096 19.3688 161.879L18.4528 161.478C18.9881 160.256 19.5344 159.038 20.0914 157.826L21.0001 158.243C21.5547 157.036 22.12 155.833 22.696 154.635L21.7947 154.201C22.3727 152.999 22.9614 151.801 23.5607 150.608L24.4543 151.057C25.0503 149.871 25.6568 148.689 26.2737 147.512L25.388 147.048C26.0076 145.866 26.6376 144.689 27.278 143.517L28.1555 143.997C28.7926 142.831 29.44 141.67 30.0975 140.514L29.2283 140.019C29.8872 138.861 30.5564 137.707 31.2356 136.559L32.0963 137.068C32.7727 135.925 33.4591 134.786 34.1554 133.653L33.3034 133.129C34.0022 131.992 34.711 130.86 35.4297 129.733L36.2728 130.271C36.9861 129.152 37.7092 128.039 38.442 126.931L37.6079 126.38C38.3437 125.267 39.0892 124.16 39.8444 123.058L40.6692 123.623C41.4211 122.526 42.1826 121.435 42.9536 120.348L42.1381 119.77C42.9087 118.684 43.6887 117.604 44.478 116.529L45.284 117.121C46.0701 116.051 46.8655 114.986 47.6701 113.926L46.8738 113.321C47.6816 112.258 48.4987 111.2 49.3249 110.148L50.1115 110.765C50.9304 109.722 51.7584 108.685 52.5953 107.653L51.8187 107.023C52.6584 105.988 53.507 104.959 54.3644 103.935L55.131 104.577C55.9851 103.557 56.848 102.544 57.7196 101.536L56.9632 100.881C57.8345 99.8739 58.7144 98.8721 59.6029 97.8763L60.3491 98.542C61.2326 97.5517 62.1247 96.5673 63.0252 95.5888L62.2894 94.9117C63.1933 93.9294 64.1057 92.9531 65.0265 91.9829L65.7518 92.6713C66.6659 91.7081 67.5883 90.7508 68.5189 89.7997L67.8041 89.1003C68.7353 88.1485 69.6747 87.2027 70.6221 86.2631L71.3263 86.9731C72.2702 86.037 73.2221 85.107 74.1819 84.1831L73.4885 83.4626C74.4498 82.5374 75.4191 81.6183 76.3962 80.7056L77.0788 81.4363C78.0477 80.5312 79.0243 79.6323 80.0086 78.7396L79.3368 77.9988C80.3248 77.1029 81.3204 76.2132 82.3236 75.3298L82.9844 76.0803C83.9833 75.2008 84.9898 74.3276 86.0037 73.4607L85.3539 72.7007C86.3648 71.8364 87.383 70.9786 88.4086 70.1271L89.0474 70.8965C90.0692 70.0481 91.0984 69.2061 92.1347 68.3706L91.5071 67.5921C92.5472 66.7536 93.5944 65.9215 94.6489 65.0961L95.2653 65.8835C96.3093 65.0661 97.3604 64.2553 98.4184 63.4509L97.8132 62.6548C98.8736 61.8487 99.9409 61.049 101.015 60.256L101.609 61.0605C102.679 60.2703 103.757 59.4867 104.841 58.7097L104.258 57.8969C105.341 57.1206 106.431 56.3509 107.527 55.5879L108.099 56.4087C109.187 55.6511 110.283 54.9 111.384 54.1557L110.825 53.327C111.93 52.5801 113.042 51.84 114.161 51.1066L114.709 51.9429C115.822 51.2135 116.94 50.4908 118.066 49.775L117.529 48.9313C118.651 48.2174 119.779 47.5102 120.914 46.8099L121.439 47.6608C122.57 46.9629 123.706 46.2717 124.849 45.5875L124.335 44.7295C125.482 44.0429 126.635 43.3633 127.794 42.6906L128.296 43.5554C129.442 42.8901 130.594 42.2316 131.751 41.58L131.261 40.7085C132.422 40.0552 133.588 39.4088 134.761 38.7694L135.24 39.6473C136.408 39.01 137.582 38.3797 138.762 37.7565L138.295 36.8723C139.473 36.2499 140.657 35.6345 141.846 35.0262L142.301 35.9165C143.482 35.3125 144.669 34.7154 145.86 34.1254L145.417 33.2292C146.612 32.6373 147.813 32.0525 149.02 31.4748L149.451 32.3767C150.652 31.8018 151.858 31.234 153.069 30.6733L152.649 29.7658C153.855 29.2073 155.067 28.656 156.283 28.1117L156.692 29.0246C157.904 28.4821 159.122 27.9468 160.345 27.4187L159.948 26.5007C161.175 25.9709 162.406 25.4483 163.643 24.933L164.028 25.856C165.252 25.3458 166.481 24.8427 167.715 24.3469L167.342 23.419C168.578 22.9227 169.818 22.4336 171.062 21.9518L171.423 22.8843C172.664 22.4041 173.91 21.9311 175.16 21.4654L174.81 20.5283C176.061 20.0625 177.316 19.6039 178.576 19.1528L178.913 20.0942C180.161 19.6473 181.413 19.2076 182.669 18.7753L182.344 17.8297C183.605 17.396 184.869 16.9697 186.139 16.5507L186.452 17.5003C187.717 17.0827 188.987 16.6725 190.261 16.2698L189.959 15.3163C191.227 14.9153 192.499 14.5217 193.776 14.1356L194.065 15.0927C195.336 14.7084 196.61 14.3314 197.888 13.9619L197.611 13.0012C198.893 12.6305 200.179 12.2673 201.469 11.9116L201.735 12.8756C203.018 12.5221 204.304 12.176 205.594 11.8375L205.34 10.8702C206.626 10.5328 207.916 10.2028 209.209 9.88033L209.451 10.8506C210.74 10.5291 212.033 10.2151 213.33 9.90863L213.1 8.93545C214.401 8.62802 215.705 8.32816 217.013 8.03591L217.231 9.01185C218.525 8.72268 219.823 8.441 221.124 8.16685L220.918 7.18833C222.22 6.91395 223.526 6.6471 224.835 6.38783L225.029 7.36878C226.335 7.1103 227.643 6.85938 228.955 6.61607L228.773 5.63284C230.086 5.38928 231.402 5.15332 232.722 4.92503L232.892 5.9104C234.198 5.68465 235.506 5.46641 236.817 5.25575L236.659 4.2684C237.974 4.05711 239.293 3.85341 240.614 3.65736L240.761 4.64654C242.079 4.45108 243.399 4.26326 244.723 4.08312L244.588 3.09225C245.908 2.91266 247.23 2.74069 248.556 2.57638L248.679 3.56879C249.994 3.4057 251.313 3.25018 252.634 3.1023L252.523 2.10851C253.849 1.96019 255.177 1.81952 256.508 1.68657L256.607 2.68162C257.934 2.54906 259.264 2.42418 260.596 2.30705L260.508 1.31089C261.831 1.19459 263.157 1.0859 264.485 0.984871L264.561 1.98199C265.884 1.88134 267.21 1.78831 268.538 1.70296L268.474 0.705017C269.806 0.619416 271.141 0.541515 272.478 0.471367L272.53 1.46999C273.86 1.40024 275.192 1.33817 276.526 1.28384L276.486 0.284665C277.812 0.230647 279.142 0.184259 280.473 0.14555L280.502 1.14513C281.829 1.10653 283.159 1.07559 284.491 1.05236L284.474 0.0525108C285.81 0.0292102 287.148 0.0136389 288.488 0.00584703L288.494 1.00583C289.162 1.00195 289.831 1 290.5 1C291.169 1 291.838 1.00195 292.507 1.00583L292.513 0.00585022C293.853 0.0136442 295.191 0.0292174 296.527 0.0525199L296.509 1.05237C297.841 1.0756 299.171 1.10654 300.499 1.14514L300.528 0.145565C301.859 0.184276 303.188 0.230666 304.515 0.284685L304.474 1.28386C305.809 1.33819 307.141 1.40026 308.47 1.47002L308.523 0.471393C309.86 0.541543 311.194 0.619445 312.527 0.705049L312.462 1.70299C313.791 1.78834 315.116 1.88137 316.44 1.98203L316.515 0.984908C317.844 1.08594 319.169 1.19463 320.492 1.31094L320.404 2.30709C321.737 2.42423 323.066 2.5491 324.393 2.68166L324.493 1.68661C325.824 1.81957 327.152 1.96023 328.477 2.10856L328.366 3.10235C329.687 3.25023 331.006 3.40575 332.322 3.56884L332.445 2.57644C333.77 2.74074 335.093 2.91272 336.412 3.09231L336.277 4.08317C337.601 4.26332 338.922 4.45114 340.239 4.6466L340.386 3.65743C341.708 3.85347 343.026 4.05717 344.342 4.26847L344.183 5.25581C345.494 5.46648 346.803 5.68471 348.108 5.91047L348.278 4.9251C349.598 5.15339 350.915 5.38935 352.228 5.63291L352.045 6.61615C353.357 6.85945 354.666 7.11037 355.971 7.36886L356.165 6.38791C357.474 6.64718 358.78 6.91403 360.082 7.18841L359.876 8.16693C361.177 8.44108 362.475 8.72277 363.769 9.01193L363.987 8.036C365.295 8.32825 366.599 8.62811 367.9 8.93553L367.67 9.90872C368.967 10.2152 370.26 10.5292 371.549 10.8507L371.791 9.88042C373.085 10.2029 374.374 10.5329 375.66 10.8703L375.406 11.8376C376.696 12.1761 377.983 12.5222 379.265 12.8757L379.531 11.9117C380.821 12.2674 382.108 12.6306 383.39 13.0013L383.112 13.962C384.39 14.3315 385.665 14.7085 386.935 15.0928L387.225 14.1357C388.501 14.5218 389.773 14.9154 391.041 15.3164L390.74 16.2699C392.013 16.6726 393.283 17.0828 394.548 17.5005L394.862 16.5508C396.131 16.9698 397.396 17.3961 398.656 17.8298L398.331 18.7754C399.588 19.2077 400.84 19.6474 402.088 20.0943L402.425 19.1529C403.684 19.604 404.939 20.0626 406.19 20.5284L405.841 21.4655C407.091 21.9312 408.336 22.4042 409.577 22.8845L409.938 21.9519C411.183 22.4337 412.423 22.9228 413.658 23.4191L413.285 24.347C414.519 24.8429 415.748 25.3459 416.973 25.8562L417.357 24.9331C418.594 25.4484 419.825 25.971 421.052 26.5008L420.656 27.4188C421.878 27.9469 423.096 28.4822 424.309 29.0247L424.717 28.1119C425.933 28.6561 427.145 29.2075 428.351 29.7659L427.931 30.6734C429.142 31.2341 430.348 31.8019 431.549 32.3769L431.981 31.4749C433.187 32.0526 434.388 32.6374 435.584 33.2294L435.14 34.1255C436.332 34.7155 437.518 35.3126 438.699 35.9166L439.154 35.0263C440.344 35.6346 441.527 36.25 442.705 36.8724L442.238 37.7566C443.418 38.3798 444.592 39.0101 445.761 39.6474L446.239 38.7695C447.412 39.4089 448.578 40.0553 449.739 40.7086L449.249 41.5801C450.407 42.2317 451.559 42.8902 452.705 43.5556L453.207 42.6908C454.365 43.3634 455.518 44.0431 456.665 44.7297L456.151 45.5876C457.294 46.2719 458.431 46.963 459.561 47.661L460.087 46.81C461.221 47.5104 462.349 48.2175 463.471 48.9315L462.935 49.7752C464.06 50.491 465.179 51.2136 466.291 51.943L466.839 51.1067C467.958 51.8401 469.07 52.5803 470.176 53.3272L469.616 54.1558C470.718 54.9002 471.813 55.6512 472.902 56.4089L473.473 55.5881C474.569 56.3511 475.659 57.1207 476.742 57.8971L476.16 58.7098C477.244 59.4868 478.321 60.2705 479.391 61.0607L479.985 60.2562C481.059 61.0492 482.127 61.8488 483.187 62.655L482.582 63.4511C483.64 64.2554 484.691 65.0663 485.735 65.8837L486.351 65.0963C487.406 65.9217 488.453 66.7537 489.493 67.5923L488.865 68.3708C489.902 69.2063 490.931 70.0483 491.953 70.8967L492.592 70.1273C493.617 70.9787 494.635 71.8366 495.646 72.7008L494.997 73.4609C496.01 74.3277 497.017 75.201 498.016 76.0805L498.677 75.33C499.68 76.2133 500.675 77.103 501.663 77.999L500.992 78.7398C501.976 79.6324 502.953 80.5314 503.921 81.4365L504.604 80.7057C505.581 81.6185 506.55 82.5376 507.512 83.4628L506.818 84.1833C507.778 85.1072 508.73 86.0372 509.674 86.9733L510.378 86.2633C511.326 87.2029 512.265 88.1487 513.196 89.1005L512.481 89.7999C513.412 90.751 514.334 91.7083 515.248 92.6715L515.974 91.9831C516.894 92.9533 517.807 93.9296 518.711 94.9119L517.975 95.589C518.875 96.5675 519.768 97.5519 520.651 98.5422L521.397 97.8765C522.286 98.8723 523.166 99.8741 524.037 100.882L523.281 101.536C524.152 102.544 525.015 103.558 525.869 104.577L526.636 103.935C527.493 104.959 528.342 105.988 529.182 107.023L528.405 107.653C529.242 108.685 530.07 109.722 530.889 110.766L531.675 110.148C532.501 111.2 533.319 112.258 534.126 113.322L533.33 113.927C534.135 114.986 534.93 116.051 535.716 117.121L536.522 116.529C537.312 117.604 538.091 118.684 538.862 119.77L538.047 120.349C538.818 121.435 539.579 122.527 540.331 123.624L541.156 123.058C541.911 124.16 542.656 125.267 543.392 126.38L542.558 126.932C543.291 128.039 544.014 129.153 544.727 130.271L545.57 129.733C546.289 130.86 546.998 131.992 547.697 133.13L546.845 133.653C547.541 134.786 548.227 135.925 548.904 137.068L549.765 136.559C550.444 137.708 551.113 138.861 551.772 140.02L550.903 140.514C551.56 141.67 552.208 142.831 552.845 143.997L553.722 143.518C554.363 144.69 554.993 145.866 555.612 147.048L554.726 147.513C555.343 148.689 555.95 149.871 556.546 151.057L557.439 150.609C558.039 151.801 558.627 152.999 559.205 154.202L558.304 154.635C558.88 155.833 559.445 157.036 560 158.243L560.909 157.826C561.466 159.039 562.012 160.256 562.547 161.478L561.631 161.879C562.165 163.096 562.687 164.318 563.198 165.544L564.121 165.159C564.635 166.391 565.138 167.627 565.629 168.868L564.7 169.236C565.189 170.471 565.668 171.711 566.135 172.954L567.071 172.603C567.54 173.852 567.998 175.105 568.445 176.363L567.503 176.698C567.947 177.949 568.381 179.204 568.803 180.464L569.751 180.146C570.175 181.412 570.587 182.681 570.988 183.955L570.034 184.255C570.433 185.522 570.821 186.793 571.197 188.068L572.156 187.785C572.533 189.064 572.899 190.346 573.253 191.633L572.288 191.898C572.641 193.178 572.981 194.463 573.31 195.751L574.279 195.503C574.609 196.797 574.928 198.094 575.235 199.394L574.262 199.624C574.566 200.914 574.859 202.208 575.139 203.506L576.117 203.294C576.399 204.598 576.669 205.905 576.928 207.215L575.946 207.409C576.204 208.713 576.449 210.021 576.682 211.332L577.667 211.157C577.9 212.467 578.121 213.78 578.33 215.097L577.342 215.254C577.55 216.564 577.746 217.878 577.931 219.195L578.921 219.056C579.106 220.379 579.279 221.705 579.44 223.035L578.447 223.155C578.606 224.469 578.753 225.786 578.887 227.106L579.882 227.005C580.018 228.33 580.141 229.658 580.252 230.989L579.255 231.072C579.366 232.397 579.464 233.725 579.55 235.055L580.548 234.991C580.634 236.318 580.708 237.649 580.769 238.982L579.77 239.028C579.831 240.351 579.88 241.677 579.917 243.005L580.917 242.977Z" stroke="black" stroke-width="2" stroke-dasharray="4 4"/>
</svg>
