<svg width="604" height="598" viewBox="0 0 604 598" fill="none" xmlns="http://www.w3.org/2000/svg">
<path d="M603.94 292.979C603.967 294.313 603.984 295.651 603.993 296.99L602.993 296.996C602.998 297.664 603 298.332 603 299C603 299.668 602.998 300.336 602.993 301.003L603.993 301.01C603.984 302.349 603.967 303.686 603.94 305.021L602.94 305.001C602.914 306.332 602.878 307.66 602.834 308.986L603.834 309.019C603.789 310.35 603.736 311.678 603.675 313.004L602.676 312.958C602.614 314.289 602.543 315.617 602.463 316.944L603.462 317.003C603.381 318.339 603.292 319.672 603.195 321.003L602.197 320.93C602.1 322.256 601.994 323.58 601.879 324.902L602.875 324.988C602.76 326.314 602.636 327.638 602.503 328.959L601.508 328.859C601.375 330.186 601.232 331.51 601.082 332.832L602.075 332.945C601.924 334.274 601.763 335.599 601.594 336.922L600.602 336.795C600.434 338.114 600.256 339.43 600.07 340.743L601.061 340.883C600.874 342.201 600.679 343.517 600.475 344.829L599.487 344.676C599.282 345.994 599.068 347.31 598.846 348.622L599.832 348.789C599.609 350.106 599.377 351.42 599.137 352.731L598.153 352.551C597.914 353.858 597.666 355.162 597.409 356.462L598.39 356.656C598.132 357.964 597.865 359.269 597.59 360.571L596.612 360.365C596.336 361.669 596.052 362.969 595.759 364.267L596.734 364.487C596.44 365.789 596.138 367.088 595.827 368.384L594.855 368.15C594.545 369.442 594.226 370.73 593.9 372.014L594.869 372.261C594.539 373.555 594.202 374.846 593.856 376.133L592.89 375.873C592.544 377.159 592.19 378.442 591.827 379.721L592.789 379.994C592.425 381.277 592.053 382.557 591.672 383.833L590.714 383.547C590.334 384.819 589.947 386.088 589.55 387.353L590.505 387.652C590.105 388.927 589.698 390.199 589.281 391.467L588.331 391.156C587.916 392.42 587.493 393.681 587.062 394.937L588.008 395.262C587.575 396.523 587.134 397.781 586.684 399.034L585.743 398.697C585.294 399.947 584.838 401.194 584.373 402.437L585.31 402.788C584.842 404.039 584.366 405.286 583.882 406.53L582.95 406.167C582.467 407.406 581.977 408.642 581.478 409.873L582.405 410.248C581.904 411.484 581.396 412.715 580.879 413.942L579.957 413.554C579.441 414.78 578.917 416.002 578.385 417.219L579.302 417.62C578.767 418.843 578.224 420.062 577.674 421.277L576.763 420.864C576.214 422.075 575.657 423.282 575.093 424.484L575.998 424.909C575.432 426.115 574.857 427.317 574.275 428.514L573.376 428.077C572.794 429.274 572.204 430.467 571.607 431.655L572.5 432.104C571.901 433.296 571.293 434.484 570.678 435.667L569.791 435.205C569.178 436.384 568.557 437.559 567.928 438.729L568.809 439.202C568.178 440.377 567.54 441.547 566.893 442.712L566.019 442.227C565.373 443.391 564.721 444.549 564.06 445.703L564.928 446.2C564.265 447.357 563.595 448.51 562.917 449.658L562.056 449.15C561.381 450.294 560.698 451.434 560.008 452.568L560.862 453.088C560.168 454.228 559.467 455.362 558.759 456.492L557.911 455.961C557.205 457.087 556.491 458.209 555.77 459.326L556.61 459.868C555.886 460.988 555.156 462.104 554.417 463.214L553.585 462.66C552.849 463.766 552.106 464.868 551.356 465.964L552.181 466.528C551.427 467.63 550.666 468.725 549.898 469.816L549.081 469.24C548.315 470.327 547.542 471.409 546.763 472.485L547.573 473.072C546.79 474.151 546.001 475.226 545.205 476.295L544.403 475.698C543.609 476.764 542.807 477.824 542 478.879L542.793 479.487C541.982 480.546 541.164 481.6 540.339 482.648L539.554 482.029C538.732 483.073 537.902 484.112 537.067 485.146L537.844 485.775C537.005 486.811 536.16 487.842 535.308 488.868L534.539 488.228C533.689 489.251 532.833 490.267 531.969 491.278L532.73 491.927C531.864 492.941 530.991 493.95 530.112 494.953L529.36 494.293C528.484 495.292 527.601 496.286 526.711 497.273L527.454 497.943C526.562 498.933 525.662 499.918 524.757 500.897L524.023 500.218C523.12 501.194 522.211 502.163 521.296 503.127L522.021 503.816C521.102 504.782 520.177 505.743 519.246 506.698L518.53 505.999C517.602 506.951 516.668 507.896 515.727 508.835L516.433 509.543C515.49 510.485 514.54 511.421 513.584 512.35L512.887 511.633C511.934 512.56 510.975 513.48 510.01 514.394L510.697 515.12C509.729 516.037 508.754 516.947 507.774 517.852L507.096 517.116C506.119 518.017 505.135 518.912 504.146 519.8L504.814 520.545C503.822 521.435 502.824 522.319 501.821 523.197L501.162 522.444C500.162 523.319 499.156 524.187 498.143 525.048L498.792 525.81C497.776 526.674 496.755 527.532 495.728 528.384L495.089 527.614C494.066 528.462 493.037 529.303 492.003 530.138L492.63 530.916C491.593 531.753 490.55 532.583 489.501 533.406L488.884 532.62C487.838 533.441 486.788 534.255 485.731 535.062L486.338 535.856C485.278 536.666 484.213 537.469 483.141 538.265L482.545 537.463C481.479 538.255 480.408 539.041 479.331 539.819L479.917 540.63C478.836 541.411 477.751 542.185 476.66 542.952L476.085 542.134C474.997 542.898 473.905 543.656 472.807 544.406L473.371 545.232C472.27 545.984 471.164 546.73 470.052 547.468L469.499 546.635C468.393 547.37 467.282 548.097 466.165 548.818L466.708 549.658C465.587 550.381 464.462 551.097 463.332 551.805L462.801 550.958C461.674 551.664 460.543 552.363 459.406 553.055L459.926 553.909C458.788 554.602 457.644 555.288 456.496 555.966L455.987 555.105C454.844 555.78 453.696 556.448 452.543 557.109L453.04 557.976C451.883 558.639 450.721 559.295 449.555 559.943L449.069 559.068C447.906 559.714 446.739 560.353 445.567 560.984L446.041 561.864C444.868 562.495 443.691 563.119 442.51 563.735L442.047 562.848C440.87 563.462 439.687 564.068 438.501 564.667L438.951 565.56C437.76 566.161 436.565 566.754 435.365 567.34L434.927 566.441C433.732 567.024 432.534 567.6 431.33 568.167L431.757 569.072C430.553 569.64 429.344 570.2 428.132 570.753L427.717 569.843C426.508 570.394 425.295 570.937 424.078 571.472L424.48 572.388C423.259 572.925 422.033 573.454 420.803 573.976L420.413 573.055C419.191 573.573 417.964 574.084 416.734 574.587L417.112 575.512C415.88 576.016 414.643 576.512 413.402 576.999L413.036 576.069C411.799 576.555 410.559 577.033 409.314 577.504L409.668 578.439C408.419 578.911 407.166 579.375 405.909 579.831L405.568 578.891C404.322 579.343 403.072 579.787 401.818 580.223L402.147 581.168C400.889 581.605 399.627 582.035 398.362 582.457L398.046 581.508C396.784 581.928 395.519 582.34 394.251 582.744L394.554 583.697C393.283 584.102 392.009 584.498 390.731 584.886L390.44 583.93C389.172 584.315 387.9 584.692 386.624 585.062L386.902 586.022C385.623 586.393 384.339 586.755 383.053 587.109L382.787 586.145C381.505 586.498 380.219 586.842 378.93 587.179L379.182 588.146C377.894 588.483 376.602 588.811 375.306 589.13L375.067 588.16C373.779 588.477 372.489 588.787 371.195 589.088L371.422 590.062C370.124 590.365 368.823 590.659 367.518 590.944L367.304 589.967C366.004 590.252 364.701 590.529 363.395 590.797L363.596 591.776C362.293 592.043 360.987 592.302 359.679 592.553L359.491 591.571C358.188 591.82 356.883 592.061 355.574 592.294L355.749 593.278C354.437 593.512 353.121 593.737 351.802 593.954L351.64 592.967C350.327 593.183 349.01 593.39 347.69 593.589L347.839 594.578C346.527 594.776 345.211 594.965 343.892 595.146L343.756 594.156C342.442 594.336 341.125 594.508 339.806 594.672L339.929 595.665C338.605 595.829 337.279 595.985 335.95 596.132L335.839 595.138C334.518 595.284 333.193 595.422 331.866 595.552L331.963 596.547C330.642 596.676 329.318 596.796 327.992 596.908L327.907 595.912C326.585 596.023 325.261 596.126 323.934 596.221L324.005 597.218C322.674 597.313 321.34 597.4 320.004 597.477L319.946 596.479C318.62 596.556 317.291 596.625 315.961 596.685L316.006 597.684C314.68 597.744 313.351 597.796 312.02 597.839L311.988 596.839C310.662 596.882 309.333 596.916 308.002 596.942L308.022 597.942C306.687 597.968 305.35 597.985 304.01 597.994L304.004 596.994C303.336 596.998 302.668 597 302 597C301.332 597 300.664 596.998 299.997 596.994L299.99 597.994C298.651 597.985 297.314 597.968 295.979 597.942L295.998 596.942C294.668 596.916 293.339 596.882 292.013 596.839L291.98 597.839C290.65 597.796 289.321 597.744 287.995 597.684L288.04 596.685C286.709 596.625 285.381 596.556 284.054 596.479L283.996 597.477C282.66 597.4 281.327 597.313 279.995 597.218L280.067 596.221C278.74 596.126 277.415 596.023 276.093 595.912L276.009 596.908C274.683 596.796 273.359 596.676 272.037 596.547L272.134 595.552C270.807 595.422 269.483 595.284 268.161 595.138L268.051 596.132C266.722 595.985 265.395 595.829 264.072 595.665L264.195 594.672C262.875 594.509 261.558 594.336 260.244 594.156L260.108 595.147C258.79 594.965 257.474 594.776 256.161 594.578L256.31 593.589C254.991 593.39 253.674 593.183 252.36 592.967L252.198 593.954C250.879 593.737 249.564 593.512 248.251 593.279L248.426 592.294C247.118 592.061 245.812 591.82 244.51 591.571L244.322 592.553C243.013 592.302 241.707 592.043 240.405 591.776L240.606 590.797C239.299 590.529 237.996 590.252 236.696 589.967L236.482 590.944C235.178 590.659 233.876 590.365 232.578 590.062L232.805 589.088C231.512 588.787 230.221 588.478 228.934 588.16L228.694 589.131C227.399 588.811 226.107 588.483 224.818 588.146L225.071 587.179C223.781 586.842 222.496 586.498 221.213 586.145L220.948 587.109C219.661 586.755 218.378 586.393 217.098 586.022L217.376 585.062C216.101 584.692 214.829 584.315 213.56 583.93L213.27 584.886C211.992 584.498 210.717 584.102 209.446 583.697L209.75 582.744C208.481 582.34 207.216 581.928 205.955 581.508L205.639 582.457C204.373 582.035 203.112 581.606 201.854 581.168L202.182 580.223C200.928 579.787 199.678 579.343 198.432 578.891L198.091 579.831C196.834 579.375 195.582 578.911 194.333 578.439L194.686 577.504C193.442 577.033 192.201 576.555 190.964 576.069L190.598 577C189.358 576.512 188.121 576.016 186.888 575.512L187.266 574.587C186.036 574.084 184.81 573.574 183.587 573.055L183.197 573.976C181.967 573.454 180.741 572.925 179.52 572.388L179.923 571.472C178.705 570.937 177.492 570.394 176.283 569.843L175.869 570.753C174.656 570.2 173.447 569.64 172.243 569.072L172.67 568.167C171.467 567.6 170.268 567.024 169.074 566.441L168.635 567.34C167.435 566.754 166.24 566.161 165.049 565.56L165.5 564.667C164.313 564.069 163.131 563.462 161.953 562.848L161.491 563.735C160.309 563.119 159.132 562.495 157.96 561.864L158.434 560.984C157.261 560.353 156.094 559.714 154.931 559.069L154.446 559.943C153.279 559.295 152.117 558.639 150.96 557.976L151.458 557.109C150.304 556.448 149.156 555.78 148.013 555.105L147.504 555.966C146.356 555.288 145.213 554.602 144.074 553.909L144.594 553.055C143.457 552.363 142.326 551.664 141.199 550.958L140.668 551.805C139.538 551.097 138.413 550.381 137.293 549.658L137.835 548.818C136.719 548.098 135.607 547.37 134.501 546.635L133.948 547.468C132.837 546.73 131.73 545.984 130.629 545.232L131.194 544.406C130.096 543.656 129.003 542.898 127.916 542.134L127.34 542.952C126.249 542.185 125.164 541.411 124.084 540.63L124.67 539.819C123.593 539.041 122.521 538.255 121.455 537.463L120.859 538.266C119.788 537.469 118.722 536.667 117.662 535.857L118.269 535.062C117.213 534.255 116.162 533.441 115.117 532.62L114.499 533.407C113.45 532.583 112.407 531.753 111.37 530.916L111.998 530.138C110.963 529.303 109.934 528.462 108.911 527.614L108.273 528.384C107.245 527.533 106.224 526.675 105.209 525.81L105.857 525.049C104.845 524.187 103.838 523.319 102.838 522.444L102.18 523.197C101.176 522.319 100.178 521.435 99.1862 520.545L99.8544 519.801C98.865 518.912 97.8817 518.018 96.9044 517.117L96.2265 517.852C95.246 516.948 94.2714 516.037 93.3031 515.12L93.9906 514.394C93.0255 513.48 92.0665 512.56 91.1137 511.634L90.4166 512.351C89.4605 511.421 88.5106 510.485 87.567 509.543L88.2735 508.836C87.3327 507.896 86.3981 506.951 85.4699 506L84.7541 506.698C83.8229 505.743 82.898 504.783 81.9795 503.816L82.7045 503.127C81.789 502.163 80.88 501.194 79.9774 500.218L79.2434 500.897C78.3378 499.918 77.4387 498.934 76.5462 497.943L77.2892 497.273C76.3996 496.286 75.5165 495.293 74.6401 494.293L73.8883 494.953C73.009 493.95 72.1362 492.942 71.2702 491.928L72.0307 491.278C71.1676 490.267 70.3111 489.251 69.4615 488.229L68.6924 488.868C67.8402 487.842 66.9947 486.811 66.1561 485.775L66.9336 485.146C66.0977 484.113 65.2687 483.074 64.4465 482.029L63.6608 482.648C62.8358 481.6 62.0178 480.546 61.2068 479.487L62.0007 478.879C61.1927 477.824 60.3916 476.764 59.5975 475.698L58.7956 476.295C57.9992 475.226 57.2098 474.152 56.4276 473.072L57.2374 472.485C56.4577 471.409 55.6851 470.327 54.9196 469.24L54.102 469.816C53.334 468.726 52.5731 467.63 51.8195 466.529L52.6447 465.964C51.8944 464.868 51.1513 463.766 50.4155 462.66L49.5828 463.214C48.8446 462.104 48.1137 460.989 47.3902 459.868L48.2302 459.326C47.509 458.209 46.7952 457.088 46.0887 455.961L45.2415 456.492C44.533 455.363 43.8319 454.228 43.1383 453.088L43.9926 452.568C43.3022 451.434 42.6193 450.294 41.9438 449.15L41.0827 449.659C40.405 448.511 39.7347 447.358 39.0721 446.2L39.94 445.703C39.2796 444.549 38.6267 443.391 37.9815 442.227L37.107 442.712C36.4606 441.547 35.8218 440.377 35.1908 439.202L36.0717 438.729C35.4433 437.559 34.8225 436.385 34.2094 435.206L33.3222 435.667C32.707 434.484 32.0996 433.296 31.5 432.104L32.3934 431.655C31.7959 430.467 31.2061 429.274 30.6242 428.077L29.7249 428.515C29.1427 427.317 28.5684 426.115 28.002 424.909L28.9072 424.484C28.3426 423.282 27.786 422.075 27.2373 420.865L26.3264 421.277C25.7759 420.062 25.2332 418.843 24.6986 417.62L25.6149 417.219C25.0829 416.002 24.5589 414.78 24.0428 413.554L23.1212 413.942C22.6046 412.715 22.096 411.484 21.5956 410.249L22.5224 409.873C22.0236 408.642 21.5329 407.407 21.0503 406.167L20.1185 406.53C19.6342 405.287 19.1582 404.039 18.6903 402.788L19.627 402.438C19.1623 401.195 18.7057 399.948 18.2573 398.697L17.316 399.034C16.8666 397.781 16.4254 396.524 15.9925 395.262L16.9383 394.938C16.5069 393.681 16.0837 392.42 15.6688 391.156L14.7187 391.468C14.3026 390.199 13.8947 388.928 13.4953 387.652L14.4496 387.353C14.0536 386.088 13.6658 384.82 13.2863 383.548L12.328 383.834C11.9473 382.557 11.5749 381.277 11.211 379.994L12.1731 379.721C11.8104 378.442 11.4561 377.16 11.1102 375.874L10.1445 376.133C9.79836 374.846 9.46064 373.555 9.13143 372.261L10.1006 372.015C9.77376 370.73 9.45537 369.442 9.14547 368.151L8.17309 368.384C7.86214 367.089 7.5597 365.79 7.26584 364.488L8.2413 364.268C7.94844 362.97 7.66413 361.669 7.38842 360.365L6.41005 360.572C6.13474 359.27 5.86798 357.965 5.60984 356.656L6.59093 356.463C6.33429 355.162 6.08619 353.858 5.8467 352.552L4.86309 352.732C4.62278 351.421 4.39112 350.107 4.16815 348.789L5.15412 348.623C4.9319 347.31 4.71835 345.995 4.51353 344.676L3.52539 344.83C3.32144 343.517 3.12612 342.201 2.93948 340.883L3.92961 340.743C3.74371 339.43 3.56646 338.114 3.39791 336.796L2.40598 336.923C2.23686 335.6 2.07647 334.274 1.92487 332.946L2.91842 332.833C2.76754 331.511 2.62541 330.186 2.49206 328.859L1.49707 328.959C1.36434 327.638 1.24029 326.315 1.12498 324.989L2.12122 324.902C2.0063 323.581 1.90008 322.257 1.80264 320.93L0.805328 321.004C0.707557 319.673 0.618583 318.34 0.538465 317.004L1.53667 316.944C1.45711 315.618 1.38632 314.289 1.32434 312.958L0.325419 313.005C0.263661 311.679 0.210629 310.35 0.166377 309.02L1.16582 308.987C1.12172 307.66 1.08637 306.332 1.05982 305.001L0.0600206 305.021C0.0333864 303.687 0.0155887 302.349 0.00668284 301.01L1.00666 301.004C1.00222 300.336 1 299.668 1 299C1 298.332 1.00222 297.664 1.00666 296.997L0.00667898 296.99C0.0155823 295.651 0.0333779 294.314 0.06001 292.979L1.05981 292.999C1.08635 291.669 1.1217 290.34 1.16581 289.014L0.166359 288.981C0.210608 287.65 0.263638 286.322 0.325393 284.996L1.32431 285.042C1.38629 283.711 1.45708 282.383 1.53664 281.056L0.538434 280.997C0.61855 279.661 0.707522 278.328 0.805291 276.997L1.8026 277.07C1.90004 275.744 2.00625 274.42 2.12117 273.098L1.12493 273.012C1.24024 271.686 1.36429 270.362 1.49702 269.041L2.49201 269.141C2.62536 267.814 2.76749 266.49 2.91836 265.168L1.92481 265.055C2.07641 263.726 2.2368 262.401 2.40592 261.078L3.39785 261.205C3.5664 259.886 3.74365 258.57 3.92954 257.257L2.93941 257.117C3.12605 255.799 3.32137 254.483 3.52532 253.171L4.51346 253.324C4.71828 252.006 4.93183 250.69 5.15404 249.378L4.16807 249.211C4.39104 247.894 4.62271 246.58 4.86301 245.269L5.84662 245.449C6.08611 244.142 6.3342 242.839 6.59084 241.538L5.60975 241.344C5.86789 240.036 6.13465 238.731 6.40996 237.429L7.38833 237.635C7.66404 236.331 7.94835 235.031 8.24121 233.733L7.26575 233.513C7.55961 232.211 7.86204 230.912 8.17299 229.616L9.14538 229.85C9.45527 228.558 9.77366 227.27 10.1005 225.986L9.13133 225.739C9.46054 224.445 9.79826 223.154 10.1444 221.867L11.1101 222.127C11.456 220.841 11.8103 219.558 12.173 218.279L11.2109 218.006C11.5748 216.723 11.9472 215.443 12.3279 214.167L13.2862 214.453C13.6657 213.181 14.0535 211.912 14.4495 210.647L13.4952 210.348C13.8946 209.073 14.3024 207.801 14.7186 206.533L15.6687 206.844C16.0836 205.58 16.5068 204.319 16.9382 203.063L15.9924 202.738C16.4253 201.477 16.8665 200.219 17.3158 198.966L18.2572 199.303C18.7056 198.053 19.1621 196.806 19.6269 195.563L18.6902 195.212C19.158 193.961 19.6341 192.714 20.1184 191.47L21.0502 191.833C21.5328 190.594 22.0235 189.358 22.5223 188.127L21.5954 187.752C22.0959 186.516 22.6045 185.285 23.1211 184.058L24.0427 184.446C24.5587 183.22 25.0828 181.998 25.6148 180.781L24.6985 180.38C25.2331 179.157 25.7757 177.938 26.3263 176.723L27.2371 177.136C27.7859 175.925 28.3425 174.718 28.907 173.516L28.0019 173.091C28.5683 171.885 29.1426 170.683 29.7247 169.486L30.6241 169.923C31.206 168.726 31.7957 167.533 32.3933 166.345L31.4999 165.896C32.0995 164.704 32.7069 163.516 33.322 162.333L34.2093 162.795C34.8223 161.616 35.4431 160.441 36.0715 159.271L35.1906 158.798C35.8217 157.623 36.4604 156.453 37.1068 155.288L37.9813 155.773C38.6266 154.609 39.2794 153.451 39.9399 152.297L39.072 151.8C39.7346 150.643 40.4048 149.49 41.0825 148.342L41.9437 148.85C42.6191 147.706 43.3021 146.566 43.9924 145.432L43.1382 144.912C43.8318 143.772 44.5329 142.638 45.2413 141.508L46.0885 142.039C46.795 140.913 47.5088 139.791 48.23 138.674L47.39 138.132C48.1136 137.012 48.8445 135.896 49.5827 134.786L50.4153 135.34C51.1512 134.234 51.8942 133.132 52.6445 132.036L51.8193 131.472C52.5729 130.37 53.3338 129.275 54.1019 128.184L54.9195 128.76C55.6849 127.673 56.4575 126.591 57.2372 125.515L56.4274 124.928C57.2097 123.849 57.999 122.774 58.7954 121.705L59.5973 122.302C60.3914 121.236 61.1925 120.176 62.0005 119.121L61.2066 118.513C62.0176 117.454 62.8356 116.4 63.6606 115.352L64.4463 115.971C65.2685 114.927 66.0975 113.888 66.9334 112.854L66.1559 112.226C66.9945 111.189 67.84 110.158 68.6922 109.132L69.4613 109.772C70.311 108.749 71.1674 107.733 72.0305 106.722L71.27 106.073C72.136 105.058 73.0088 104.05 73.8881 103.048L74.6399 103.707C75.5163 102.708 76.3994 101.714 77.289 100.727L76.546 100.057C77.4385 99.0667 78.3376 98.0818 79.2432 97.103L79.9772 97.7821C80.8798 96.8065 81.7888 95.8368 82.7042 94.8733L81.9793 94.1845C82.8977 93.2177 83.8226 92.257 84.7539 91.3023L85.4697 92.0006C86.3979 91.0492 87.3324 90.1038 88.2732 89.1646L87.5667 88.4569C88.5103 87.5149 89.4602 86.5791 90.4164 85.6496L91.1134 86.3665C92.0663 85.4402 93.0253 84.5201 93.9904 83.6062L93.3029 82.8801C94.2712 81.9632 95.2457 81.0527 96.2263 80.1485L96.9042 80.8837C97.8815 79.9826 98.8648 79.0879 99.8541 78.1995L99.186 77.4555C100.178 76.5649 101.176 75.6808 102.179 74.8032L102.838 75.5561C103.838 74.6814 104.844 73.8132 105.857 72.9515L105.208 72.1901C106.224 71.3256 107.245 70.4676 108.272 69.6163L108.911 70.3863C109.934 69.5383 110.963 68.697 111.997 67.8623L111.37 67.084C112.407 66.2471 113.45 65.4169 114.499 64.5935L115.116 65.38C116.162 64.5593 117.213 63.7454 118.269 62.9382L117.662 62.1436C118.722 61.3337 119.787 60.5307 120.859 59.7346L121.455 60.5371C122.521 59.7448 123.593 58.9594 124.669 58.1808L124.083 57.3704C125.164 56.5895 126.249 55.8154 127.34 55.0484L127.915 55.8665C129.003 55.102 130.095 54.3445 131.193 53.594L130.629 52.7684C131.73 52.0158 132.836 51.2703 133.948 50.5319L134.501 51.3649C135.607 50.6302 136.718 49.9025 137.835 49.182L137.292 48.3418C138.413 47.6189 139.538 46.9032 140.668 46.1947L141.199 47.042C142.326 46.3358 143.457 45.6368 144.594 44.9451L144.074 44.0909C145.212 43.3981 146.356 42.7125 147.504 42.0342L148.013 42.8953C149.156 42.22 150.304 41.552 151.457 40.8914L150.96 40.0237C152.117 39.3609 153.279 38.7054 154.445 38.0574L154.931 38.9316C156.094 38.2858 157.261 37.6473 158.433 37.0164L157.959 36.1358C159.132 35.5048 160.309 34.8812 161.49 34.2652L161.953 35.1519C163.13 34.538 164.313 33.9315 165.499 33.3326L165.049 32.4399C166.24 31.839 167.435 31.2457 168.635 30.6601L169.073 31.5588C170.268 30.9758 171.466 30.4005 172.67 29.8328L172.243 28.9284C173.447 28.3603 174.656 27.7999 175.868 27.2472L176.283 28.1572C177.492 27.6063 178.705 27.0631 179.922 26.5277L179.52 25.6123C180.741 25.0752 181.967 24.5458 183.197 24.0242L183.587 24.9449C184.809 24.4266 186.036 23.9161 187.266 23.4134L186.888 22.4877C188.12 21.9841 189.357 21.4884 190.598 21.0006L190.964 21.9313C192.201 21.4451 193.441 20.9668 194.686 20.4964L194.332 19.561C195.581 19.0891 196.834 18.6251 198.091 18.1692L198.432 19.1092C199.678 18.6571 200.928 18.2129 202.182 17.7767L201.853 16.8322C203.111 16.3946 204.373 15.965 205.638 15.5435L205.954 16.4922C207.216 16.0721 208.481 15.66 209.749 15.2561L209.446 14.3032C210.717 13.8986 211.991 13.502 213.269 13.1137L213.56 14.0705C214.828 13.685 216.1 13.3077 217.376 12.9385L217.098 11.9779C218.377 11.6074 219.661 11.2452 220.947 10.8911L221.213 11.8553C222.495 11.5024 223.781 11.1577 225.07 10.8212L224.818 9.85364C226.106 9.51735 227.398 9.18929 228.694 8.8695L228.933 9.84036C230.221 9.52258 231.511 9.213 232.805 8.91169L232.578 7.93776C233.876 7.63545 235.177 7.34143 236.482 7.05576L236.696 8.03261C237.996 7.74788 239.299 7.47148 240.605 7.20346L240.404 6.22387C241.707 5.95662 243.013 5.69769 244.321 5.44712L244.509 6.42928C245.812 6.17989 247.117 5.93881 248.426 5.70611L248.251 4.72156C249.563 4.48809 250.879 4.26301 252.198 4.04639L252.36 5.03317C253.673 4.81734 254.99 4.60993 256.31 4.411L256.161 3.42217C257.473 3.22423 258.789 3.03466 260.108 2.85352L260.244 3.84421C261.558 3.66366 262.875 3.49151 264.194 3.32782L264.071 2.33543C265.395 2.17119 266.721 2.01544 268.05 1.86824L268.161 2.86216C269.482 2.71576 270.807 2.57783 272.134 2.44843L272.037 1.45315C273.358 1.32429 274.682 1.20386 276.008 1.09191L276.093 2.08837C277.415 1.97679 278.739 1.87368 280.066 1.77907L279.995 0.781606C281.326 0.686695 282.66 0.600328 283.996 0.522559L284.054 1.52087C285.38 1.44367 286.709 1.37497 288.039 1.31483L287.994 0.315847C289.32 0.255904 290.649 0.20443 291.98 0.16148L292.012 1.16096C293.338 1.11815 294.667 1.08383 295.998 1.05807L295.978 0.0582532C297.313 0.0324028 298.65 0.0151292 299.99 0.00648582L299.996 1.00647C300.664 1.00216 301.332 1 302 1C302.668 1 303.336 1.00216 304.003 1.00646L304.01 0.00648227C305.349 0.0151233 306.686 0.0323944 308.021 0.0582422L308.002 1.05805C309.332 1.08382 310.661 1.11813 311.987 1.16094L312.02 0.161462C313.35 0.204411 314.679 0.255882 316.005 0.315824L315.96 1.3148C317.291 1.37495 318.619 1.44364 319.945 1.52084L320.004 0.522528C321.34 0.600295 322.673 0.68666 324.004 0.781569L323.933 1.77904C325.26 1.87364 326.585 1.97675 327.907 2.08833L327.991 1.09187C329.317 1.20381 330.641 1.32424 331.963 1.4531L331.866 2.44838C333.193 2.57778 334.517 2.7157 335.839 2.8621L335.949 1.86818C337.278 2.01539 338.605 2.17114 339.928 2.33537L339.805 3.32776C341.125 3.49145 342.442 3.6636 343.756 3.84415L343.892 2.85345C345.21 3.0346 346.526 3.22416 347.839 3.4221L347.69 4.41093C349.009 4.60985 350.326 4.81726 351.64 5.03309L351.802 4.04632C353.121 4.26293 354.436 4.48801 355.749 4.72148L355.574 5.70603C356.882 5.93873 358.188 6.17981 359.49 6.42919L359.678 5.44703C360.987 5.6976 362.293 5.95654 363.595 6.22378L363.394 7.20337C364.701 7.47139 366.004 7.74779 367.304 8.03252L367.518 7.05567C368.822 7.34134 370.124 7.63536 371.422 7.93767L371.195 8.9116C372.488 9.21291 373.779 9.52248 375.066 9.84025L375.306 8.8694C376.601 9.18918 377.893 9.51725 379.182 9.85353L378.929 10.8211C380.219 11.1576 381.504 11.5023 382.787 11.8551L383.052 10.891C384.339 11.245 385.622 11.6073 386.902 11.9778L386.624 12.9383C387.899 13.3076 389.171 13.6849 390.44 14.0703L390.73 13.1135C392.008 13.5019 393.283 13.8984 394.554 14.3031L394.25 15.2559C395.519 15.6599 396.784 16.072 398.045 16.4921L398.361 15.5434C399.627 15.9649 400.888 16.3945 402.146 16.8321L401.818 17.7766C403.072 18.2128 404.322 18.657 405.568 19.1091L405.909 18.169C407.166 18.625 408.418 19.0889 409.667 19.5609L409.314 20.4963C410.558 20.9667 411.799 21.445 413.036 21.9312L413.402 21.0005C414.642 21.4883 415.879 21.984 417.112 22.4876L416.734 23.4133C417.964 23.916 419.19 24.4265 420.413 24.9447L420.803 24.0241C422.033 24.5456 423.259 25.075 424.48 25.6122L424.077 26.5276C425.295 27.063 426.508 27.6062 427.717 28.157L428.131 27.2471C429.344 27.7998 430.553 28.3602 431.757 28.9282L431.33 29.8326C432.533 30.4003 433.732 30.9757 434.926 31.5586L435.365 30.66C436.565 31.2456 437.76 31.8389 438.951 32.4397L438.5 33.3325C439.687 33.9314 440.869 34.5378 442.047 35.1518L442.509 34.265C443.691 34.8811 444.868 35.5046 446.04 36.1357L445.566 37.0162C446.739 37.6472 447.906 38.2856 449.069 38.9314L449.554 38.0573C450.721 38.7053 451.883 39.3607 453.04 40.0235L452.542 40.8912C453.695 41.5518 454.844 42.2198 455.987 42.8951L456.496 42.0341C457.644 42.7123 458.787 43.3979 459.926 44.0907L459.406 44.945C460.543 45.6367 461.674 46.3356 462.801 47.0418L463.332 46.1945C464.462 46.903 465.587 47.6187 466.707 48.3416L466.165 49.1818C467.281 49.9023 468.392 50.63 469.498 51.3647L470.052 50.5317C471.163 51.2701 472.27 52.0156 473.371 52.7682L472.806 53.5938C473.904 54.3443 474.997 55.1018 476.084 55.8663L476.66 55.0482C477.751 55.8153 478.836 56.5893 479.916 57.3702L479.33 58.1806C480.407 58.9592 481.479 59.7446 482.545 60.5369L483.141 59.7344C484.212 60.5305 485.278 61.3335 486.338 62.1434L485.731 62.938C486.787 63.7452 487.838 64.5592 488.883 65.3799L489.501 64.5933C490.55 65.4167 491.593 66.2469 492.63 67.0837L492.002 67.8621C493.037 68.6967 494.066 69.5381 495.089 70.3861L495.727 69.6161C496.755 70.4674 497.776 71.3253 498.791 72.1899L498.143 72.9513C499.155 73.813 500.162 74.6812 501.162 75.5559L501.82 74.803C502.824 75.6806 503.822 76.5647 504.814 77.4552L504.146 78.1993C505.135 79.0876 506.118 79.9824 507.096 80.8835L507.773 80.1483C508.754 81.0525 509.729 81.963 510.697 82.8799L510.009 83.606C510.975 84.5199 511.934 85.44 512.886 86.3663L513.583 85.6493C514.54 86.5789 515.489 87.5147 516.433 88.4567L515.727 89.1644C516.667 90.1036 517.602 91.049 518.53 92.0004L519.246 91.3021C520.177 92.2567 521.102 93.2175 522.021 94.1842L521.296 94.873C522.211 95.8366 523.12 96.8062 524.023 97.7818L524.757 97.1027C525.662 98.0816 526.561 99.0664 527.454 100.057L526.711 100.727C527.6 101.714 528.483 102.707 529.36 103.707L530.112 103.047C530.991 104.05 531.864 105.058 532.73 106.072L531.969 106.722C532.832 107.733 533.689 108.749 534.539 109.771L535.308 109.132C536.16 110.158 537.005 111.189 537.844 112.225L537.066 112.854C537.902 113.887 538.731 114.926 539.553 115.971L540.339 115.352C541.164 116.4 541.982 117.454 542.793 118.513L541.999 119.121C542.807 120.176 543.608 121.236 544.402 122.302L545.204 121.705C546.001 122.774 546.79 123.848 547.572 124.928L546.763 125.515C547.542 126.591 548.315 127.673 549.08 128.76L549.898 128.184C550.666 129.274 551.427 130.37 552.181 131.471L551.355 132.036C552.106 133.132 552.849 134.234 553.584 135.34L554.417 134.786C555.155 135.896 555.886 137.011 556.61 138.132L555.77 138.674C556.491 139.791 557.205 140.912 557.911 142.039L558.758 141.508C559.467 142.637 560.168 143.772 560.862 144.912L560.007 145.432C560.698 146.566 561.381 147.706 562.056 148.85L562.917 148.341C563.595 149.489 564.265 150.642 564.928 151.8L564.06 152.297C564.72 153.451 565.373 154.609 566.019 155.773L566.893 155.288C567.539 156.453 568.178 157.623 568.809 158.798L567.928 159.271C568.557 160.441 569.177 161.615 569.791 162.794L570.678 162.333C571.293 163.516 571.9 164.704 572.5 165.896L571.607 166.345C572.204 167.533 572.794 168.726 573.376 169.923L574.275 169.485C574.857 170.683 575.432 171.885 575.998 173.091L575.093 173.516C575.657 174.718 576.214 175.925 576.763 177.135L577.674 176.723C578.224 177.938 578.767 179.157 579.301 180.38L578.385 180.781C578.917 181.998 579.441 183.22 579.957 184.446L580.879 184.058C581.395 185.285 581.904 186.516 582.404 187.751L581.478 188.127C581.976 189.358 582.467 190.593 582.95 191.833L583.882 191.47C584.366 192.713 584.842 193.961 585.31 195.212L584.373 195.562C584.838 196.805 585.294 198.052 585.743 199.303L586.684 198.966C587.133 200.219 587.575 201.476 588.008 202.738L587.062 203.062C587.493 204.319 587.916 205.58 588.331 206.844L589.281 206.532C589.697 207.8 590.105 209.072 590.505 210.348L589.55 210.647C589.946 211.912 590.334 213.18 590.714 214.452L591.672 214.166C592.053 215.443 592.425 216.723 592.789 218.006L591.827 218.279C592.19 219.558 592.544 220.84 592.89 222.126L593.855 221.867C594.202 223.154 594.539 224.445 594.869 225.739L593.899 225.985C594.226 227.27 594.545 228.558 594.855 229.849L595.827 229.616C596.138 230.911 596.44 232.21 596.734 233.512L595.759 233.732C596.052 235.03 596.336 236.331 596.612 237.635L597.59 237.428C597.865 238.73 598.132 240.035 598.39 241.344L597.409 241.537C597.666 242.838 597.914 244.142 598.153 245.448L599.137 245.268C599.377 246.579 599.609 247.893 599.832 249.211L598.846 249.377C599.068 250.69 599.282 252.006 599.486 253.324L600.475 253.17C600.679 254.483 600.874 255.799 601.061 257.117L600.07 257.257C600.256 258.57 600.434 259.886 600.602 261.204L601.594 261.077C601.763 262.4 601.924 263.726 602.075 265.054L601.082 265.167C601.232 266.489 601.375 267.814 601.508 269.141L602.503 269.041C602.636 270.362 602.76 271.685 602.875 273.011L601.879 273.098C601.994 274.419 602.1 275.743 602.197 277.07L603.195 276.996C603.292 278.327 603.381 279.66 603.462 280.996L602.463 281.056C602.543 282.382 602.614 283.711 602.676 285.042L603.675 284.995C603.736 286.321 603.789 287.65 603.834 288.98L602.834 289.013C602.878 290.34 602.914 291.668 602.94 292.999L603.94 292.979Z" stroke="black" stroke-width="2" stroke-dasharray="4 4"/>
</svg>
