<svg width="36" height="36" viewBox="0 0 36 36" fill="none" xmlns="http://www.w3.org/2000/svg">
<g clip-path="url(#clip0_10_119)">
<path d="M23.4428 15.5486C22.6535 15.5486 21.9115 15.2414 21.3537 14.6833C20.7956 14.1252 20.488 13.3836 20.488 12.5943C20.488 11.8053 20.7952 11.0633 21.3537 10.5052C21.9115 9.94711 22.6535 9.63989 23.4428 9.63989C24.2317 9.63989 24.9737 9.94711 25.5318 10.5052C26.6835 11.6573 26.6835 13.5316 25.5318 14.6833C24.9741 15.2414 24.2317 15.5486 23.4428 15.5486ZM23.4428 10.4276C22.8638 10.4276 22.3199 10.6529 21.9107 11.0621C21.5014 11.4714 21.2758 12.0157 21.2758 12.5943C21.2758 13.1728 21.5011 13.7172 21.9107 14.1264C22.3199 14.5356 22.8638 14.7609 23.4428 14.7609C24.0214 14.7609 24.5657 14.5356 24.9749 14.1264C25.8197 13.2815 25.8197 11.907 24.9749 11.0621C24.5657 10.6529 24.0214 10.4276 23.4428 10.4276ZM21.6322 10.7837H21.6361H21.6322Z" fill="#331B3B"/>
<path d="M35.7215 2.6693C35.7219 2.49207 35.7207 2.31404 35.7163 2.13483C35.7144 2.03597 35.7104 1.93672 35.7069 1.83786C35.7026 1.71419 35.6986 1.5913 35.6923 1.46684C35.6801 1.22934 35.6647 0.99145 35.6447 0.751982C35.6289 0.560171 35.4769 0.40814 35.2851 0.391992C35.0444 0.371905 34.8053 0.356544 34.5667 0.344334C34.4489 0.338032 34.3319 0.334882 34.2145 0.330549C34.1086 0.32661 34.0022 0.322672 33.8967 0.320309C33.7246 0.316764 33.5536 0.315582 33.3831 0.315582C33.3532 0.315582 33.3236 0.315582 33.2937 0.315976C29.8068 0.334094 26.6083 1.20768 23.3715 3.01748C23.3676 3.01984 23.3656 3.02417 23.3617 3.02654C20.7507 4.48028 18.1422 6.53625 15.4391 9.23972C15.0905 9.58829 14.7479 9.94119 14.4119 10.2968C14.3989 10.2965 14.3871 10.2909 14.3737 10.2921L8.95929 10.7037C8.88367 10.7096 8.8108 10.7368 8.75054 10.7829L0.429016 17.1142C0.299435 17.2127 0.243901 17.3805 0.288801 17.5364C0.333701 17.6928 0.469978 17.8054 0.631855 17.82L8.58788 18.538L11.7856 21.7354C10.7431 21.7291 9.57056 22.2171 8.63317 23.1541C8.20859 23.5787 7.8679 24.0545 7.61976 24.5712C7.27238 25.3073 6.49962 27.2262 5.68117 29.2582L5.28731 30.2361C5.22823 30.3827 5.2625 30.5504 5.37396 30.6619C5.44919 30.7371 5.55002 30.7773 5.65242 30.7773C5.70205 30.7773 5.75207 30.7682 5.79972 30.7489L6.81156 30.3413C8.82813 29.5291 10.7325 28.7623 11.4674 28.4157C11.981 28.1684 12.4572 27.8281 12.8818 27.4031C13.6246 26.6603 14.1157 25.7481 14.2646 24.8343C14.2969 24.6366 14.3083 24.4448 14.3075 24.2577L17.425 27.3739L18.1434 35.3307C18.1579 35.4926 18.2706 35.6289 18.427 35.6738C18.4628 35.684 18.4998 35.6892 18.5357 35.6892C18.6566 35.6892 18.7736 35.6332 18.8492 35.5336L25.1809 27.2125C25.2266 27.1522 25.2546 27.0797 25.2601 27.0041L25.6638 21.6956C26.0454 21.3368 26.4239 20.9713 26.7977 20.5975C29.5016 17.8937 31.5575 15.2851 33.0117 12.6738C33.0137 12.6703 33.0176 12.6687 33.0196 12.6651C34.8313 9.42523 35.7049 6.22431 35.7211 2.73153C35.7211 2.71105 35.7211 2.69018 35.7215 2.6693ZM34.3177 7.45198C34.3055 7.49806 34.2925 7.54375 34.2799 7.58983C33.914 8.90809 33.3662 10.3142 32.571 11.8112L24.2258 3.46609C25.7205 2.67206 27.125 2.12499 28.4413 1.75909C28.4909 1.7457 28.5406 1.73152 28.5902 1.71813C28.6875 1.69174 28.784 1.66771 28.8805 1.64369C30.808 1.1679 32.7848 1.00799 34.8853 1.15215C35.0294 3.25025 34.8699 5.22587 34.3949 7.15146C34.3697 7.25111 34.3449 7.35115 34.3177 7.45198ZM9.13495 11.4796L13.6407 11.1373C12.8286 12.0373 12.0621 12.9527 11.3457 13.8763C11.3445 13.8774 11.3429 13.8782 11.3418 13.8794C11.311 13.9188 11.2831 13.9582 11.2528 13.9976C11.0219 14.2969 10.7951 14.5966 10.5757 14.8972C10.5316 14.9578 10.4898 15.0181 10.4461 15.0783C10.2389 15.3651 10.0341 15.6518 9.838 15.9385C9.75607 16.0583 9.68006 16.1768 9.6001 16.2962C9.44768 16.5238 9.29368 16.7519 9.14874 16.9795C8.98253 17.2395 8.82695 17.4974 8.67138 17.755L1.7138 17.1264L9.13495 11.4796ZM9.92583 17.2284C10.0235 17.0776 10.1255 16.9256 10.2271 16.7739C10.3307 16.6183 10.4355 16.4624 10.5426 16.3068C10.6753 16.1142 10.8108 15.9208 10.9491 15.7274C11.0231 15.6234 11.0988 15.5199 11.174 15.4163C11.337 15.1922 11.5017 14.9681 11.6722 14.7436C11.6789 14.7349 11.686 14.7258 11.6927 14.7172L21.3199 24.3443C21.3088 24.3526 21.2978 24.3613 21.2868 24.3699C21.0666 24.5369 20.8468 24.698 20.6271 24.8583C20.5195 24.9367 20.412 25.0147 20.3045 25.0915C20.1139 25.2278 19.9236 25.3609 19.7342 25.4917C19.5735 25.6023 19.4128 25.7103 19.2521 25.817C19.1056 25.9151 18.9587 26.0139 18.8125 26.1085C18.4967 26.3125 18.1808 26.5118 17.8665 26.7012L9.33543 18.1709C9.52409 17.8574 9.7226 17.5431 9.92583 17.2284ZM13.4875 24.7079C13.365 25.4598 12.9523 26.2191 12.3252 26.8462C11.9633 27.2077 11.56 27.4972 11.1287 27.7044C10.4174 28.0403 8.43466 28.8383 6.51734 29.6107L6.36374 29.6725L6.41297 29.55C7.19045 27.6193 7.99433 25.6228 8.33069 24.9103C8.53904 24.4759 8.82853 24.073 9.19009 23.7114C9.9723 22.9292 10.9349 22.5086 11.7593 22.5086C12.263 22.5086 12.7152 22.6653 13.0429 22.9934C13.4446 23.3943 13.6025 24.0029 13.4875 24.7079ZM24.4834 26.8284L18.8366 34.2488L18.2186 27.4043C18.4971 27.2373 18.7763 27.0679 19.0575 26.8879C19.2793 26.7465 19.501 26.5964 19.7228 26.4484C19.8484 26.3645 19.9733 26.2845 20.0993 26.1979C20.3785 26.0068 20.6574 25.8075 20.9363 25.6063C21.0056 25.5563 21.0745 25.5086 21.1438 25.4582C21.4337 25.2467 21.7224 25.0277 22.0111 24.8056C22.0599 24.7681 22.1088 24.7331 22.1576 24.6953C22.1592 24.6941 22.16 24.6917 22.1616 24.6905C23.0552 23.9974 23.9422 23.2581 24.8142 22.4747L24.4834 26.8284ZM26.2408 20.0406C24.8568 21.4246 23.4121 22.7063 21.9489 23.8591L12.1775 14.0882C13.3304 12.625 14.612 11.1803 15.9964 9.79625C18.7149 7.07781 21.2147 5.179 23.5086 3.8631L32.1739 12.5285C30.858 14.8223 28.9592 17.3222 26.2408 20.0406Z" fill="#331B3B"/>
</g>
<defs>
<clipPath id="clip0_10_119">
<rect width="36" height="36" fill="white"/>
</clipPath>
</defs>
</svg>
